<?xml version="1.0" encoding="UTF-8" standalone="no"?>
<svg
   xmlns:dc="http://purl.org/dc/elements/1.1/"
   xmlns:cc="http://creativecommons.org/ns#"
   xmlns:rdf="http://www.w3.org/1999/02/22-rdf-syntax-ns#"
   xmlns:svg="http://www.w3.org/2000/svg"
   xmlns="http://www.w3.org/2000/svg"
   version="1.1"
   id="svg2"
   viewBox="0 0 5000 4999.9999"
   height="5000"
   width="5000">
  <defs
     id="defs4" />
  <metadata
     id="metadata7">
    <rdf:RDF>
      <cc:Work
         rdf:about="">
        <dc:format>image/svg+xml</dc:format>
        <dc:type
           rdf:resource="http://purl.org/dc/dcmitype/StillImage" />
        <dc:title></dc:title>
      </cc:Work>
    </rdf:RDF>
  </metadata>
  <g
     transform="translate(2386.9101,-3798.7827)"
     id="layer1">
    <circle
       r="2500"
       cy="6298.7827"
       cx="113.0899"
       id="path864"
       style="fill:#1c1c1c;fill-opacity:1" />
    <circle
       r="0"
       cy="-317.93839"
       cx="2523.1167"
       id="path4304-4-6"
       style="fill:#000000;fill-opacity:1;stroke:none;stroke-width:2;stroke-linecap:square;stroke-linejoin:miter;stroke-miterlimit:4;stroke-dasharray:none;stroke-opacity:1" />
    <circle
       r="0"
       cy="862.34735"
       cx="320.25952"
       id="path4304-4-2"
       style="fill:#000000;fill-opacity:1;stroke:none;stroke-width:2;stroke-linecap:square;stroke-linejoin:miter;stroke-miterlimit:4;stroke-dasharray:none;stroke-opacity:1" />
    <circle
       r="0"
       cy="862.34735"
       cx="2523.1167"
       id="path4304-4-0"
       style="fill:#000000;fill-opacity:1;stroke:none;stroke-width:2;stroke-linecap:square;stroke-linejoin:miter;stroke-miterlimit:4;stroke-dasharray:none;stroke-opacity:1" />
    <circle
       r="0"
       cy="2456.3474"
       cx="1385.9738"
       id="path4304-4-0-6"
       style="fill:#000000;fill-opacity:1;stroke:none;stroke-width:2;stroke-linecap:square;stroke-linejoin:miter;stroke-miterlimit:4;stroke-dasharray:none;stroke-opacity:1" />
    <circle
       r="0"
       cy="2162.2476"
       cx="2458.947"
       id="path4304-4-9-6"
       style="fill:#000000;fill-opacity:1;stroke:none;stroke-width:2;stroke-linecap:square;stroke-linejoin:miter;stroke-miterlimit:4;stroke-dasharray:none;stroke-opacity:1" />
    <circle
       r="0"
       cy="-339.29968"
       cx="2475.4346"
       id="path4304-4-9-0"
       style="fill:#000000;fill-opacity:1;stroke:none;stroke-width:2;stroke-linecap:square;stroke-linejoin:miter;stroke-miterlimit:4;stroke-dasharray:none;stroke-opacity:1" />
    <path
       d="m 94.378722,5048.7826 c -583.509852,0 -1073.167152,399.7841 -1210.978622,940.279 -0.9289,3.9342 -1.5659,7.943 -1.5659,12.1262 0,32.8682 26.6558,59.5115 59.5318,59.5115 h 503.81397 c 23.991,0 44.5089,-14.3299 53.9934,-34.7606 l 0.078,0.028 c 103.5209,-225.3339 330.88536,-381.9807 595.128202,-381.9807 361.504998,0 654.729098,293.2241 654.729098,654.8113 0,361.6011 -293.2241,654.8252 -654.729098,654.8252 -264.242842,0 -491.607302,-156.6467 -595.128202,-382.0415 l -0.078,0.1194 c -9.4845,-20.4793 -30.0024,-34.7718 -53.9934,-34.7718 H -1058.634 c -32.876,0 -59.5318,26.567 -59.5318,59.5213 0,4.076 0.637,7.9568 1.4832,11.8573 137.76837,540.5322 627.44447,940.4757 1211.061322,940.4757 690.273998,0 1249.966878,-559.7177 1249.966878,-1249.9869 0,-690.3437 -559.69288,-1250.0117 -1249.966878,-1250.0117 z M -203.2702,6298.7943 c 0,-164.3284 133.283022,-297.6065 297.648922,-297.6065 164.333398,0 297.573938,133.2781 297.573938,297.6065 0,164.3409 -133.24054,297.6539 -297.573938,297.6539 -164.3659,0 -297.648922,-133.313 -297.648922,-297.6539"
       style="fill:#ffffff;fill-opacity:1;fill-rule:nonzero;stroke:none;stroke-width:1.2450068"
       id="path957" />
  </g>
</svg>
